<svg width="39" height="41" viewBox="0 0 39 41" fill="none" xmlns="http://www.w3.org/2000/svg">
<path d="M33.7377 8.38772C31.9577 7.80058 30.0014 7.54895 28.1252 7.54895C24.9983 7.54895 21.6308 8.21997 19.3056 10.0653C16.9805 8.21997 13.613 7.54895 10.4861 7.54895C7.35913 7.54895 3.99166 8.21997 1.6665 10.0653V34.6413C1.6665 35.0607 2.06739 35.48 2.46828 35.48C2.62864 35.48 2.70882 35.3962 2.86917 35.3962C5.03397 34.3058 8.16091 33.5509 10.4861 33.5509C13.613 33.5509 16.9805 34.2219 19.3056 36.0672C21.4704 34.6413 25.3992 33.5509 28.1252 33.5509C30.7711 33.5509 33.4971 34.0541 35.7421 35.3123C35.9025 35.3962 35.9826 35.3962 36.143 35.3962C36.5439 35.3962 36.9448 34.9768 36.9448 34.5574V10.0653C35.9826 9.31037 34.9403 8.80711 33.7377 8.38772ZM33.7377 31.0346C31.9737 30.4474 30.0495 30.1958 28.1252 30.1958C25.3992 30.1958 21.4704 31.2862 19.3056 32.7121V13.4204C21.4704 11.9944 25.3992 10.904 28.1252 10.904C30.0495 10.904 31.9737 11.1557 33.7377 11.7428V31.0346Z" fill="#724786"/>
<path d="M28.1252 17.6142C29.5363 17.6142 30.8993 17.7652 32.1341 18.0504V15.5005C30.8673 15.2489 29.5042 15.0979 28.1252 15.0979C25.3991 15.0979 22.9297 15.5844 20.9092 16.4903V19.275C22.7212 18.2014 25.2388 17.6142 28.1252 17.6142ZM20.9092 20.9525V23.7372C22.7212 22.6636 25.2388 22.0765 28.1252 22.0765C29.5363 22.0765 30.8993 22.2275 32.1341 22.5126V19.9628C30.8673 19.7111 29.5042 19.5602 28.1252 19.5602C25.3991 19.5602 22.9297 20.0634 20.9092 20.9525ZM28.1252 24.0392C25.3991 24.0392 22.9297 24.5257 20.9092 25.4316V28.2163C22.7212 27.1427 25.2388 26.5555 28.1252 26.5555C29.5363 26.5555 30.8993 26.7065 32.1341 26.9917V24.4418C30.8673 24.1734 29.5042 24.0392 28.1252 24.0392Z" fill="#724786"/>
</svg>
