<svg width="36" height="30" viewBox="0 0 36 30" fill="none" xmlns="http://www.w3.org/2000/svg">
<path d="M32.7377 1.38772C30.9577 0.800582 29.0014 0.54895 27.1252 0.54895C23.9983 0.54895 20.6308 1.21997 18.3056 3.06527C15.9805 1.21997 12.613 0.54895 9.48607 0.54895C6.35913 0.54895 2.99166 1.21997 0.666504 3.06527V27.6413C0.666504 28.0607 1.06739 28.48 1.46828 28.48C1.62864 28.48 1.70882 28.3962 1.86917 28.3962C4.03397 27.3058 7.16091 26.5509 9.48607 26.5509C12.613 26.5509 15.9805 27.2219 18.3056 29.0672C20.4704 27.6413 24.3992 26.5509 27.1252 26.5509C29.7711 26.5509 32.4971 27.0541 34.7421 28.3123C34.9025 28.3962 34.9826 28.3962 35.143 28.3962C35.5439 28.3962 35.9448 27.9768 35.9448 27.5574V3.06527C34.9826 2.31037 33.9403 1.80711 32.7377 1.38772ZM32.7377 24.0346C30.9737 23.4474 29.0495 23.1958 27.1252 23.1958C24.3992 23.1958 20.4704 24.2862 18.3056 25.7121V6.42035C20.4704 4.99444 24.3992 3.90404 27.1252 3.90404C29.0495 3.90404 30.9737 4.15567 32.7377 4.74281V24.0346Z" fill="#724786"/>
<path d="M27.1252 10.6142C28.5363 10.6142 29.8993 10.7652 31.1341 11.0504V8.50051C29.8673 8.24888 28.5042 8.0979 27.1252 8.0979C24.3991 8.0979 21.9297 8.58439 19.9092 9.49026V12.275C21.7212 11.2014 24.2388 10.6142 27.1252 10.6142ZM19.9092 13.9525V16.7372C21.7212 15.6636 24.2388 15.0765 27.1252 15.0765C28.5363 15.0765 29.8993 15.2275 31.1341 15.5126V12.9628C29.8673 12.7111 28.5042 12.5602 27.1252 12.5602C24.3991 12.5602 21.9297 13.0634 19.9092 13.9525ZM27.1252 17.0392C24.3991 17.0392 21.9297 17.5257 19.9092 18.4316V21.2163C21.7212 20.1427 24.2388 19.5555 27.1252 19.5555C28.5363 19.5555 29.8993 19.7065 31.1341 19.9917V17.4418C29.8673 17.1734 28.5042 17.0392 27.1252 17.0392Z" fill="#724786"/>
</svg>
