<svg width="31" height="23" viewBox="0 0 31 23" fill="none" xmlns="http://www.w3.org/2000/svg">
<path d="M15.7282 0.0185547C8.92237 0.0185547 3.11019 4.68698 0.755371 11.2768C3.11019 17.8666 8.92237 22.5351 15.7282 22.5351C22.534 22.5351 28.3462 17.8666 30.701 11.2768C28.3462 4.68698 22.534 0.0185547 15.7282 0.0185547ZM15.7282 18.7823C11.9714 18.7823 8.92237 15.4199 8.92237 11.2768C8.92237 7.13377 11.9714 3.77131 15.7282 3.77131C19.485 3.77131 22.534 7.13377 22.534 11.2768C22.534 15.4199 19.485 18.7823 15.7282 18.7823ZM15.7282 6.77351C13.4687 6.77351 11.6447 8.78499 11.6447 11.2768C11.6447 13.7686 13.4687 15.7801 15.7282 15.7801C17.9877 15.7801 19.8117 13.7686 19.8117 11.2768C19.8117 8.78499 17.9877 6.77351 15.7282 6.77351Z" fill="#724786"/>
</svg>
