<svg width="53" height="53" viewBox="0 0 53 53" fill="none" xmlns="http://www.w3.org/2000/svg">
<circle cx="26.3" cy="26.3" r="26.3" fill="#A6328A"/>
<path d="M26.0033 18.3084C21.7468 18.3084 18.3134 21.7425 18.3134 26C18.3134 30.2575 21.7468 33.6916 26.0033 33.6916C30.2599 33.6916 33.6933 30.2575 33.6933 26C33.6933 21.7425 30.2599 18.3084 26.0033 18.3084ZM26.0033 31.0006C23.2527 31.0006 21.0039 28.758 21.0039 26C21.0039 23.242 23.246 20.9994 26.0033 20.9994C28.7607 20.9994 31.0028 23.242 31.0028 26C31.0028 28.758 28.754 31.0006 26.0033 31.0006ZM35.8015 17.9938C35.8015 18.9912 34.9983 19.7878 34.0078 19.7878C33.0106 19.7878 32.2142 18.9845 32.2142 17.9938C32.2142 17.003 33.0173 16.1997 34.0078 16.1997C34.9983 16.1997 35.8015 17.003 35.8015 17.9938ZM40.8946 19.8146C40.7808 17.4114 40.232 15.2826 38.4718 13.5287C36.7184 11.7749 34.5901 11.2259 32.1874 11.1054C29.7111 10.9649 22.2889 10.9649 19.8126 11.1054C17.4166 11.2192 15.2883 11.7682 13.5282 13.522C11.768 15.2759 11.2259 17.4047 11.1054 19.8079C10.9649 22.2847 10.9649 29.7086 11.1054 32.1854C11.2192 34.5886 11.768 36.7174 13.5282 38.4713C15.2883 40.2251 17.4099 40.7741 19.8126 40.8946C22.2889 41.0351 29.7111 41.0351 32.1874 40.8946C34.5901 40.7808 36.7184 40.2318 38.4718 38.4713C40.2253 36.7174 40.7741 34.5886 40.8946 32.1854C41.0351 29.7086 41.0351 22.2914 40.8946 19.8146ZM37.6955 34.843C37.1735 36.1551 36.1629 37.1659 34.8444 37.6947C32.8701 38.478 28.1852 38.2972 26.0033 38.2972C23.8215 38.2972 19.1299 38.4713 17.1623 37.6947C15.8505 37.1726 14.8399 36.1618 14.3112 34.843C13.5282 32.8682 13.7089 28.1823 13.7089 26C13.7089 23.8177 13.5349 19.1251 14.3112 17.157C14.8332 15.8449 15.8438 14.8341 17.1623 14.3053C19.1366 13.522 23.8215 13.7028 26.0033 13.7028C28.1852 13.7028 32.8767 13.5287 34.8444 14.3053C36.1562 14.8274 37.1668 15.8382 37.6955 17.157C38.4785 19.1318 38.2978 23.8177 38.2978 26C38.2978 28.1823 38.4785 32.8749 37.6955 34.843Z" fill="white"/>
</svg>
