<svg width="53" height="53" viewBox="0 0 53 53" fill="none" xmlns="http://www.w3.org/2000/svg">
<circle cx="26.3" cy="26.3" r="26.3" fill="#A6328A"/>
<path d="M11 14.4848C11 13.4747 11.3378 12.6414 12.0135 11.9848C12.6892 11.3283 13.5676 11 14.6486 11C15.7104 11 16.5695 11.3232 17.2259 11.9697C17.9015 12.6364 18.2394 13.505 18.2394 14.5758C18.2394 15.5455 17.9112 16.3535 17.2548 17C16.5792 17.6667 15.6911 18 14.5907 18H14.5618C13.5 18 12.6409 17.6667 11.9846 17C11.3282 16.3333 11 15.4949 11 14.4848ZM11.3764 41V20.7576H17.805V41H11.3764ZM21.3668 41H27.7954V29.697C27.7954 28.9899 27.8726 28.4444 28.027 28.0606C28.2973 27.3737 28.7075 26.7929 29.2577 26.3182C29.8079 25.8434 30.4981 25.6061 31.3282 25.6061C33.4904 25.6061 34.5714 27.1313 34.5714 30.1818V41H41V29.3939C41 26.404 40.3243 24.1364 38.973 22.5909C37.6216 21.0455 35.8359 20.2727 33.6158 20.2727C31.1255 20.2727 29.1853 21.3939 27.7954 23.6364V23.697H27.7664L27.7954 23.6364V20.7576H21.3668C21.4054 21.404 21.4247 23.4141 21.4247 26.7879C21.4247 30.1616 21.4054 34.899 21.3668 41Z" fill="white"/>
</svg>
