<svg width="54" height="54" viewBox="0 0 54 54" fill="none" xmlns="http://www.w3.org/2000/svg">
<path d="M26.857 0.537054C12.322 0.537054 0.536621 12.3225 0.536621 26.8574C0.536621 41.3923 12.322 53.1777 26.857 53.1777C41.3919 53.1777 53.1773 41.3923 53.1773 26.8574C53.1773 12.3225 41.3919 0.537054 26.857 0.537054ZM39.506 20.3772C39.5236 20.6533 39.5236 20.9412 39.5236 21.2232C39.5236 29.8478 32.9553 39.7826 20.9525 39.7826C17.2512 39.7826 13.8202 38.7074 10.9296 36.8568C11.4584 36.9155 11.9636 36.939 12.5042 36.939C15.5592 36.939 18.3675 35.905 20.6059 34.1542C17.7388 34.0955 15.3301 32.2155 14.5076 29.6304C15.5122 29.7773 16.417 29.7773 17.451 29.5129C15.9747 29.213 14.6478 28.4113 13.6957 27.2439C12.7436 26.0765 12.225 24.6155 12.228 23.1091V23.0268C13.0917 23.5145 14.1081 23.8141 15.1714 23.8552C14.2775 23.2595 13.5444 22.4523 13.0371 21.5054C12.5298 20.5584 12.264 19.5009 12.2633 18.4267C12.2633 17.2105 12.5805 16.1001 13.1504 15.1366C14.789 17.1537 16.8337 18.8035 19.1516 19.9787C21.4695 21.1538 24.0088 21.8281 26.6043 21.9576C25.682 17.5219 28.9955 13.9322 32.9788 13.9322C34.8588 13.9322 36.5508 14.7195 37.7435 15.9885C39.2181 15.7124 40.6282 15.1601 41.8854 14.4199C41.3978 15.9298 40.3755 17.2046 39.0184 18.0095C40.3344 17.8685 41.6034 17.5043 42.7784 16.9931C41.8913 18.2974 40.7809 19.4548 39.506 20.3772Z" fill="#A6328A"/>
</svg>
