<svg width="36" height="21" viewBox="0 0 36 21" fill="none" xmlns="http://www.w3.org/2000/svg">
<path d="M28.5 18V21H10.5V18C10.5 18 10.5 12 19.5 12C28.5 12 28.5 18 28.5 18ZM24 4.5C24 3.60999 23.7361 2.73996 23.2416 1.99994C22.7471 1.25991 22.0443 0.683138 21.2221 0.342544C20.3998 0.00194979 19.495 -0.0871652 18.6221 0.0864683C17.7492 0.260102 16.9474 0.688685 16.318 1.31802C15.6887 1.94736 15.2601 2.74918 15.0865 3.6221C14.9128 4.49501 15.0019 5.39981 15.3425 6.22208C15.6831 7.04434 16.2599 7.74715 16.9999 8.24161C17.74 8.73608 18.61 9 19.5 9C20.6935 9 21.8381 8.5259 22.682 7.68198C23.5259 6.83807 24 5.69348 24 4.5ZM28.8 12.09C29.6199 12.8465 30.281 13.7587 30.7446 14.7734C31.2081 15.7881 31.465 16.885 31.5 18V21H36V18C36 18 36 12.825 28.8 12.09ZM27 1.71225e-06C26.5468 0.000272932 26.0964 0.0711217 25.665 0.210001C26.5426 1.46846 27.0131 2.96578 27.0131 4.5C27.0131 6.03423 26.5426 7.53155 25.665 8.79C26.0964 8.92888 26.5468 8.99973 27 9C28.1935 9 29.3381 8.5259 30.182 7.68198C31.0259 6.83807 31.5 5.69348 31.5 4.5C31.5 3.30653 31.0259 2.16193 30.182 1.31802C29.3381 0.474108 28.1935 1.71225e-06 27 1.71225e-06ZM12 7.5H0V10.5H12V7.5Z" fill="#724786"/>
</svg>
