<svg width="35" height="22" viewBox="0 0 35 22" fill="none" xmlns="http://www.w3.org/2000/svg">
<path d="M27.3913 18.8571V22H9.13043V18.8571C9.13043 18.8571 9.13043 12.5714 18.2609 12.5714C27.3913 12.5714 27.3913 18.8571 27.3913 18.8571ZM22.8261 4.71429C22.8261 3.78189 22.5583 2.87043 22.0567 2.09517C21.5551 1.31991 20.8421 0.715669 20.0079 0.358856C19.1737 0.00204263 18.2558 -0.0913159 17.3702 0.0905858C16.4847 0.272488 15.6712 0.721479 15.0328 1.38078C14.3943 2.04009 13.9595 2.88009 13.7834 3.79458C13.6072 4.70906 13.6976 5.65694 14.0432 6.51837C14.3887 7.37979 14.9738 8.11606 15.7246 8.63407C16.4753 9.15208 17.358 9.42857 18.2609 9.42857C19.4716 9.42857 20.6328 8.93189 21.489 8.04779C22.3451 7.16369 22.8261 5.96459 22.8261 4.71429ZM27.6957 12.6657C28.5275 13.4582 29.1981 14.4138 29.6684 15.4769C30.1387 16.5399 30.3992 17.689 30.4348 18.8571V22H35V18.8571C35 18.8571 35 13.4357 27.6957 12.6657ZM25.8696 1.79379e-06C25.4098 0.000285929 24.9529 0.0745084 24.5152 0.220002C25.4055 1.53838 25.8829 3.107 25.8829 4.71429C25.8829 6.32157 25.4055 7.89019 24.5152 9.20857C24.9529 9.35406 25.4098 9.42829 25.8696 9.42857C27.0803 9.42857 28.2415 8.93189 29.0977 8.04779C29.9538 7.16369 30.4348 5.96459 30.4348 4.71429C30.4348 3.46398 29.9538 2.26488 29.0977 1.38078C28.2415 0.496684 27.0803 1.79379e-06 25.8696 1.79379e-06ZM9.64783 6.16L11.413 8.37572L4.18478 15.84L0 11.1257L1.76522 9.30286L4.18478 11.7857L9.64783 6.16Z" fill="#724786"/>
</svg>
