<svg width="53" height="53" viewBox="0 0 53 53" fill="none" xmlns="http://www.w3.org/2000/svg">
<path d="M13.8881 30.1391H15.9896V40.5315H18.0047V30.1391H20.1063V28.383H13.8881V30.1391ZM24.5108 38.3724C24.1654 38.7754 22.985 39.5815 22.985 38.43V31.5497H21.2002V39.0633C21.2002 41.3375 23.4744 40.733 24.5396 39.5527V40.5315H26.3244V31.5497H24.5396V38.3724H24.5108ZM31.1608 31.4921C30.1244 31.4921 29.4623 32.2694 29.4623 32.2694V28.3542H27.6487V40.5315H29.4623V39.8406C29.4623 39.8406 30.0669 40.6466 31.1608 40.6466C32.1108 40.6466 32.8305 39.8118 32.8305 38.6603V33.68C32.8305 32.3269 32.1972 31.4921 31.1608 31.4921ZM30.9593 38.43C30.9593 39.0921 30.4987 39.4087 29.8941 39.1497C29.7309 39.0733 29.5842 38.9657 29.4623 38.833V33.2481C29.5775 33.133 29.7214 33.0466 29.8366 32.9603C30.4699 32.6436 30.9593 33.133 30.9593 33.7951V38.43ZM37.6093 37.9694C37.6093 38.6603 37.2351 39.1209 36.8032 39.1497C36.3426 39.1784 35.882 38.8042 35.882 37.9694V36.2709H39.3078V33.9678C39.3166 33.6172 39.2549 33.2683 39.1263 32.9419C38.9977 32.6155 38.8049 32.3183 38.5593 32.0678C38.0641 31.6161 37.4159 31.3692 36.7457 31.3769C36.1123 31.3769 35.4502 31.5784 34.932 31.9815C34.385 32.4133 34.0396 33.0754 34.0396 33.9678V37.9981C34.0396 38.8042 34.2987 39.4375 34.7017 39.8981C35.1911 40.4163 35.8532 40.7042 36.5441 40.733C37.379 40.7618 38.2714 40.4163 38.7896 39.6966C39.1063 39.2648 39.3078 38.689 39.3078 37.9981V37.5375H37.6093V37.9694ZM35.882 33.9678C35.882 33.4784 36.1699 32.9027 36.7169 32.9027C37.2638 32.9027 37.6093 33.4209 37.6093 33.9678V34.889H35.882V33.9678Z" fill="#A6328A"/>
<path d="M26.8137 0.948146C23.4111 0.948335 20.0418 1.61872 16.8983 2.92102C13.7548 4.22332 10.8985 6.13203 8.49263 8.53818C6.08675 10.9443 4.17835 13.8008 2.8764 16.9445C1.57445 20.0882 0.904444 23.4575 0.904633 26.8601C0.904822 30.2627 1.5752 33.632 2.87751 36.7755C4.17981 39.9191 6.08852 42.7753 8.49467 45.1812C10.9008 47.5871 13.7573 49.4955 16.901 50.7974C20.0446 52.0994 23.414 52.7694 26.8166 52.7692C33.6885 52.7688 40.2788 50.0386 45.1377 45.1792C49.9966 40.3197 52.7261 33.7291 52.7257 26.8572C52.7253 19.9853 49.9951 13.395 45.1357 8.53615C40.2762 3.67725 33.6856 0.947764 26.8137 0.948146ZM31.3622 10.6497H33.6652V18.3648C33.6652 18.8542 33.8955 18.8542 33.9819 18.8542C34.3274 18.8542 34.8455 18.48 35.1046 18.2209V10.6209H37.4077V20.8118H35.1046V19.9194C34.788 20.2072 34.4713 20.4375 34.1546 20.6103C33.7228 20.8406 33.3198 20.9269 32.9168 20.9269C32.6961 20.9375 32.4758 20.8991 32.2718 20.8145C32.0677 20.7299 31.8849 20.6012 31.7365 20.4375C31.4774 20.1209 31.3622 19.6315 31.3622 19.0269V10.6497ZM24.0213 13.3269C24.0213 11.7436 25.3168 10.4481 26.9001 10.4481C28.4834 10.4481 29.7789 11.7436 29.7789 13.3269V18.2209C29.7789 19.8042 28.4834 21.0997 26.9001 21.0997C25.3168 21.0997 24.0213 19.8042 24.0213 18.2209V13.3269ZM18.0334 7.13754L19.4152 12.2042L20.8258 7.13754H23.4455L20.7395 15.1406V20.8118H18.1774V15.1406L15.4137 7.13754H18.0334ZM40.7758 43.2375C39.3077 44.6769 26.8713 44.7057 26.8713 44.7057C26.8713 44.7057 14.4637 44.6769 12.9668 43.2375C11.4986 41.7981 11.4986 34.63 11.4986 34.5724C11.4986 34.5436 11.4986 27.3754 12.9668 25.9072C14.4349 24.4678 26.8713 24.4391 26.8713 24.4391C26.8713 24.4391 39.2789 24.4678 40.7758 25.9072C42.244 27.3466 42.2728 34.5148 42.2728 34.5724C42.2728 34.5724 42.2728 41.7694 40.7758 43.2375Z" fill="#A6328A"/>
<path d="M26.8425 19.2286C27.3319 19.2286 27.5622 18.9408 27.591 18.4802V13.0105C27.591 12.6362 27.2167 12.3196 26.8713 12.3196C26.5258 12.3196 26.1516 12.6074 26.1516 13.0105V18.4802C26.1516 18.912 26.3531 19.1999 26.8425 19.2286Z" fill="#A6328A"/>
</svg>
