<svg width="19" height="21" viewBox="0 0 19 21" fill="none" xmlns="http://www.w3.org/2000/svg">
<path d="M2.04634 20.48C1.56634 20.48 1.23634 20.33 1.05634 20.03C0.876342 19.67 0.786342 19.25 0.786342 18.77V5.89999C0.786342 4.4 1.05634 3.26 1.59634 2.48C2.19634 1.7 2.88634 1.18999 3.66634 0.949994C4.50634 0.709997 5.25634 0.589999 5.91634 0.589999C6.33634 0.589999 6.66634 0.619998 6.90634 0.679998C7.14634 0.679998 7.38634 0.709997 7.62634 0.769997V3.29C6.78634 3.29 6.21634 3.5 5.91634 3.92C5.67634 4.28 5.55634 4.76 5.55634 5.36V9.86H6.27634C6.75634 9.86 7.14634 10.01 7.44634 10.31C7.74634 10.55 7.89634 10.97 7.89634 11.57V18.77C7.89634 19.91 7.35634 20.48 6.27634 20.48H2.04634ZM12.7563 20.48C12.2763 20.48 11.9463 20.33 11.7663 20.03C11.5863 19.67 11.4963 19.25 11.4963 18.77V5.89999C11.4963 4.4 11.7663 3.26 12.3063 2.48C12.9063 1.7 13.5963 1.18999 14.3763 0.949994C15.2163 0.709997 15.9663 0.589999 16.6263 0.589999C17.0463 0.589999 17.3763 0.619998 17.6163 0.679998C17.8563 0.679998 18.0963 0.709997 18.3363 0.769997V3.29C17.4963 3.29 16.9263 3.5 16.6263 3.92C16.3863 4.28 16.2663 4.76 16.2663 5.36V9.86H16.9863C17.4663 9.86 17.8563 10.01 18.1563 10.31C18.4563 10.55 18.6063 10.97 18.6063 11.57V18.77C18.6063 19.91 18.0663 20.48 16.9863 20.48H12.7563Z" fill="#A6328A"/>
</svg>
