<svg width="19" height="21" viewBox="0 0 19 21" fill="none" xmlns="http://www.w3.org/2000/svg">
<path d="M2.94906 20.75C2.58906 20.75 2.25906 20.75 1.95906 20.75C1.71906 20.69 1.47906 20.63 1.23906 20.57V18.05C2.07906 18.05 2.61906 17.84 2.85906 17.42C3.15906 17 3.30906 16.52 3.30906 15.98V11.48H2.49906C2.07906 11.48 1.71906 11.33 1.41906 11.03C1.11906 10.73 0.969063 10.31 0.969063 9.77V2.56999C0.969063 1.37 1.47906 0.769997 2.49906 0.769997H6.81906C7.29906 0.769997 7.62906 0.949996 7.80906 1.30999C7.98906 1.67 8.07906 2.09 8.07906 2.56999V15.44C8.07906 16.94 7.77906 18.08 7.17906 18.86C6.63906 19.58 5.97906 20.09 5.19906 20.39C4.41906 20.63 3.66906 20.75 2.94906 20.75ZM13.6591 20.75C13.2991 20.75 12.9691 20.75 12.6691 20.75C12.4291 20.69 12.1891 20.63 11.9491 20.57V18.05C12.7891 18.05 13.3291 17.84 13.5691 17.42C13.8691 17 14.0191 16.52 14.0191 15.98V11.48H13.2091C12.7891 11.48 12.4291 11.33 12.1291 11.03C11.8291 10.73 11.6791 10.31 11.6791 9.77V2.56999C11.6791 1.37 12.1891 0.769997 13.2091 0.769997H17.5291C18.0091 0.769997 18.3391 0.949996 18.5191 1.30999C18.6991 1.67 18.7891 2.09 18.7891 2.56999V15.44C18.7891 16.94 18.4891 18.08 17.8891 18.86C17.3491 19.58 16.6891 20.09 15.9091 20.39C15.1291 20.63 14.3791 20.75 13.6591 20.75Z" fill="#A6328A"/>
</svg>
